<?xml version="1.0" encoding="UTF-8" standalone="no"?>
<!-- Uploaded to: SVG Repo, www.svgrepo.com, Generator: SVG Repo Mixer Tools -->

<svg
   fill="#000000"
   height="800px"
   width="800px"
   version="1.1"
   id="Layer_1"
   viewBox="0 0 507.9 507.9"
   xml:space="preserve"
   sodipodi:docname="email-mail-svgrepo-com.svg"
   inkscape:version="1.2.2 (732a01da63, 2022-12-09)"
   xmlns:inkscape="http://www.inkscape.org/namespaces/inkscape"
   xmlns:sodipodi="http://sodipodi.sourceforge.net/DTD/sodipodi-0.dtd"
   xmlns="http://www.w3.org/2000/svg"
   xmlns:svg="http://www.w3.org/2000/svg"><defs
   id="defs22" /><sodipodi:namedview
   id="namedview20"
   pagecolor="#ffffff"
   bordercolor="#111111"
   borderopacity="1"
   inkscape:showpageshadow="0"
   inkscape:pageopacity="0"
   inkscape:pagecheckerboard="1"
   inkscape:deskcolor="#d1d1d1"
   showgrid="false"
   inkscape:zoom="1.11625"
   inkscape:cx="399.55207"
   inkscape:cy="400.89586"
   inkscape:window-width="1920"
   inkscape:window-height="1051"
   inkscape:window-x="1791"
   inkscape:window-y="-9"
   inkscape:window-maximized="1"
   inkscape:current-layer="Layer_1" />
<g
   id="g17">
	<g
   id="g15">
		<path
   d="M465.7,84.45H42.3c-23.3,0-42.3,19-42.3,42.4v254.3c0,23.3,19,42.3,42.3,42.3h423.3c23.3,0,42.3-19,42.3-42.3v-254.3    C508,103.45,489,84.45,465.7,84.45z M454.3,112.75l-200.4,169.1L53.7,112.75H454.3z M28.2,377.75v-249.6L177,253.75L28.2,377.75z     M51.4,395.15l147.5-122.9l45.9,38.8c2.6,2.2,5.9,3.3,9.1,3.3s6.5-1.1,9.1-3.3l46-38.8l147.7,122.9H51.4z M479.8,377.65    l-148.9-123.9l148.9-125.7V377.65z"
   id="path13" />
	</g>
</g>
<path
   style="fill:#e6e6e6;stroke-width:0.895857"
   d="m 44.792833,398.24073 v -195.4837 l 8.286674,7.08757 c 4.557671,3.89816 56.259803,47.52814 114.893613,96.95551 58.63382,49.42737 107.34262,90.55823 108.24179,91.40192 1.56203,1.46568 -3.4851,5.7983 -113.34465,97.29867 -63.238717,52.67059 -115.676521,96.31798 -116.528455,96.99421 -1.467082,1.16451 -1.548972,-9.10518 -1.548972,-194.25418 z"
   id="path335"
   transform="scale(0.634875)" /><path
   style="fill:#f2f2f2;stroke-width:0.895857"
   d="M 243.03646,310.67201 86.293245,178.27548 243.44335,178.04901 c 86.43256,-0.12455 227.64904,-0.12455 313.8144,0 l 156.66428,0.22647 -155.45023,131.243 c -85.49763,72.18365 -156.17966,131.76208 -157.07118,132.39653 -1.45222,1.03345 -17.93647,-12.62773 -158.36416,-131.243 z"
   id="path337"
   transform="scale(0.634875)" /><path
   style="fill:#e6e6e6;stroke-width:0.895857"
   d="m 82.493468,621.84159 c 0.2053,-0.18196 51.369912,-42.76728 113.699142,-94.63403 62.32923,-51.86675 114.17039,-95.06646 115.20259,-95.99935 1.87056,-1.69061 1.99703,-1.59427 38.52183,29.34436 20.35186,17.23919 38.43755,31.87335 40.67648,32.91363 5.35129,2.4864 13.34367,2.46158 18.81298,-0.0584 2.26207,-1.04225 20.11863,-15.4618 40.68638,-32.85511 32.17916,-27.2126 36.82829,-30.8478 38.07391,-29.77041 0.78039,0.67499 52.21396,43.45333 114.29683,95.06299 62.08286,51.60966 113.46824,94.39632 114.18973,95.08147 1.12027,1.06386 -45.10304,1.24573 -316.61068,1.24573 -174.85735,0 -317.754493,-0.14888 -317.549192,-0.33086 z"
   id="path339"
   transform="scale(0.634875)" /><path
   style="fill:#e6e6e6;stroke-width:0.895857"
   d="m 638.82442,496.80415 c -63.76415,-53.05011 -115.83651,-96.83571 -115.71634,-97.30134 0.12016,-0.46562 52.29083,-44.80793 115.93482,-98.53846 l 115.71634,-97.69185 0.22792,97.46789 c 0.12537,53.60735 0.12537,141.35428 0,194.9932 l -0.22792,97.5253 z"
   id="path341"
   transform="scale(0.634875)" /><path
   style="fill:#ffffff;stroke-width:0.895857"
   d="m 392.7308,435.65621 c -3.88548,-3.05426 -15.38633,-12.50399 -25.55744,-20.99941 -10.17112,-8.49542 -18.73775,-15.20141 -19.03696,-14.9022 -0.2992,0.29921 -0.54401,0.11423 -0.54401,-0.41107 0,-1.12693 -49.72068,-43.24051 -51.05116,-43.24051 -0.49969,0 -0.90853,-0.33223 -0.90853,-0.7383 0,-0.68121 -26.34526,-23.44983 -27.13347,-23.44983 -0.19276,0 -2.73321,-2.21119 -5.64545,-4.91376 -2.91224,-2.70257 -5.61667,-4.91981 -6.00986,-4.92721 -0.39317,-0.007 -1.60258,-0.97842 -2.68757,-2.15783 -2.39072,-2.59876 -48.80895,-41.7526 -49.49915,-41.7526 -0.2683,0 -1.37554,-0.95571 -2.46053,-2.12379 -2.07024,-2.22879 -37.08633,-31.91876 -37.64471,-31.91876 -0.17741,0 -2.70531,-2.21119 -5.61755,-4.91376 -2.91225,-2.70257 -5.61668,-4.91982 -6.00986,-4.92721 -0.39317,-0.007 -1.60258,-0.96916 -2.68757,-2.13724 -3.34856,-3.60502 -37.26645,-31.91877 -38.23644,-31.91877 -0.50287,0 -0.91431,-0.33403 -0.91431,-0.74229 0,-0.61586 -5.58499,-5.50162 -21.902892,-19.16071 C 87.446396,178.86703 104.42615,178.78293 400,178.78152 l 312.65398,-0.001 -2.68757,2.32723 c -7.3367,6.353 -12.05052,10.38795 -16.12542,13.8031 -2.46361,2.06472 -5.08399,4.29455 -5.82307,4.95516 -0.73908,0.66062 -4.3673,3.68613 -8.06271,6.72337 -3.69541,3.03723 -7.32862,6.20064 -8.07379,7.02979 -0.74519,0.82916 -2.01071,1.88355 -2.81229,2.3431 -0.80157,0.45955 -3.61853,2.72313 -6.25991,5.03019 -2.64137,2.30706 -10.4464,8.91609 -17.34449,14.68672 -6.8981,5.77064 -13.34827,11.24092 -14.33371,12.15619 -0.98544,0.91526 -5.0168,4.33516 -8.95857,7.59977 -3.94177,3.2646 -7.88804,6.6906 -8.7695,7.61333 -0.88145,0.92272 -1.88929,1.68473 -2.23964,1.69336 -0.35035,0.009 -2.80662,2.03403 -5.4584,4.50089 -2.65176,2.46686 -5.32826,4.77783 -5.94777,5.13549 -1.0795,0.62322 -9.33043,7.65337 -13.38028,11.40057 -1.06503,0.98544 -3.32354,2.8449 -5.0189,4.13215 -1.69537,1.28724 -4.44553,3.61482 -6.11147,5.17239 -1.66594,1.55757 -3.53617,3.12475 -4.15606,3.48263 -1.08006,0.62352 -9.32996,7.65266 -13.38098,11.40096 -1.06503,0.98544 -3.32354,2.8449 -5.01891,4.13215 -1.69536,1.28724 -4.44552,3.61482 -6.11146,5.17239 -1.66594,1.55757 -3.53617,3.12475 -4.15607,3.48263 -0.61989,0.35787 -3.2882,2.53492 -5.92958,4.83788 -2.64137,2.30297 -7.82602,6.69091 -11.52143,9.75097 -3.6954,3.06007 -7.32861,6.24216 -8.07379,7.07132 -0.74518,0.82915 -2.0107,1.88355 -2.81228,2.3431 -0.80158,0.45954 -3.61853,2.71978 -6.25991,5.02274 -2.64137,2.30297 -7.82602,6.6909 -11.52143,9.75097 -3.69541,3.06007 -7.32862,6.24216 -8.07379,7.07132 -0.74518,0.82915 -2.0239,1.88355 -2.8416,2.3431 -0.81771,0.45954 -3.63466,2.72275 -6.25992,5.02934 -2.62524,2.30659 -7.79669,6.66422 -11.4921,9.68362 -3.69541,3.0194 -7.32862,6.19853 -8.07379,7.06472 -0.74519,0.8662 -2.02391,1.9509 -2.84161,2.41045 -0.8177,0.45954 -3.63466,2.72275 -6.25991,5.02934 -2.62525,2.30659 -7.7967,6.67689 -11.49211,9.71177 -3.6954,3.03489 -7.52519,6.29253 -8.51063,7.2392 -0.98545,0.94667 -4.10975,3.57984 -6.94289,5.85148 -2.83315,2.27163 -5.15118,4.484 -5.15118,4.91638 0,0.43238 -0.41532,0.78613 -0.92294,0.78613 -0.50761,0 -4.23661,2.82191 -8.28667,6.27091 -4.05005,3.44899 -7.81293,6.27094 -8.36194,6.271 -0.54902,4e-5 -4.17724,-2.49885 -8.06271,-5.55311 z"
   id="path343"
   transform="scale(0.634875)" /></svg>
